<svg xmlns="http://www.w3.org/2000/svg" version="1.1" xmlns:xlink="http://www.w3.org/1999/xlink" xmlns:svgjs="http://svgjs.dev/svgjs" width="1000" height="1000" viewBox="0 0 1000 1000"><rect width="1000" height="1000" fill="#000000"></rect><g transform="matrix(0.7,0,0,0.7,149.57575757575756,282.1265587044535)"><svg viewBox="0 0 396 247" data-background-color="#ca3433" preserveAspectRatio="xMidYMid meet" height="623" width="1000" xmlns="http://www.w3.org/2000/svg" xmlns:xlink="http://www.w3.org/1999/xlink"><g id="tight-bounds" transform="matrix(1,0,0,1,0.2400000000000091,-0.09999999999999432)"><svg viewBox="0 0 395.52 247.2" height="247.2" width="395.52"><g><svg></svg></g><g><svg viewBox="0 0 395.52 247.2" height="247.2" width="395.52"><g transform="matrix(1,0,0,1,136.85258658892127,47.215199999999996)"><svg viewBox="0 0 121.81482682215743 152.7696" height="152.7696" width="121.81482682215743"><g><svg viewBox="0 0 121.81482682215743 152.7696" height="152.7696" width="121.81482682215743"><g><svg viewBox="0 0 121.81482682215743 152.7696" height="152.7696" width="121.81482682215743"><g><svg viewBox="0 0 121.81482682215743 152.7696" height="152.7696" width="121.81482682215743"><g><svg viewBox="0 0 121.81482682215743 152.7696" height="152.7696" width="121.81482682215743"><g><svg viewBox="0 0 121.81482682215743 152.7696" height="152.7696" width="121.81482682215743"><g transform="matrix(1,0,0,1,0,0)"><svg width="121.81482682215743" viewBox="3.95 -34.3 27.35 34.3" height="152.7696" data-palette-color="#f7e1e1"><path d="M3.95 0L3.95-34.3 20.65-34.3Q25.8-34.3 28.55-31.45 31.3-28.6 31.3-23.85L31.3-23.85Q31.3-19 28.43-16.07 25.55-13.15 20.65-13.15L20.65-13.15 8.7-13.15 8.7 0 3.95 0ZM8.7-17.3L20.4-17.3Q23.2-17.3 24.85-19.05 26.5-20.8 26.5-23.8L26.5-23.8Q26.5-26.85 24.95-28.5 23.4-30.15 20.4-30.15L20.4-30.15 8.7-30.15 8.7-17.3Z" opacity="1" transform="matrix(1,0,0,1,0,0)" fill="#ffffff" class="undefined-text-0" data-fill-palette-color="primary" id="text-0"></path></svg></g></svg></g></svg></g></svg></g></svg></g></svg></g></svg></g><g><path d="M184.507 0c30.402 0 58.24 10.976 79.769 29.183l-11.148 0c-19.26-14.022-42.974-22.294-68.621-22.295-25.647 0-49.361 8.272-68.621 22.295l-11.147 0c21.528-18.206 49.366-29.183 79.768-29.183zM184.507 247.2c-30.402 0-58.24-10.976-79.768-29.183h11.147c19.26 14.022 42.974 22.294 68.621 22.295 25.647 0 49.361-8.272 68.622-22.295h11.147c-21.528 18.206-49.366 29.183-79.769 29.183z" fill="#f7e1e1" stroke="transparent" data-fill-palette-color="tertiary"></path></g></svg></g><defs></defs></svg><rect width="395.52" height="247.2" fill="none" stroke="none" visibility="hidden"></rect></g></svg></g></svg>